<svg xmlns="http://www.w3.org/2000/svg" xmlns:xlink="http://www.w3.org/1999/xlink" width="940" zoomAndPan="magnify" viewBox="0 0 705 591.000005" height="788" preserveAspectRatio="xMidYMid meet" version="1.0"><defs><g/></defs><g fill="#000000" fill-opacity="1"><g transform="translate(348.393344, 492.389159)"><g><path d="M -8.484375 -0.984375 C -7.335938 -0.847656 -6.445312 -0.378906 -5.8125 0.421875 C -5.175781 1.222656 -4.921875 2.15625 -5.046875 3.21875 L -9.140625 38.75 C -9.265625 39.820312 -9.726562 40.675781 -10.53125 41.3125 C -11.332031 41.945312 -12.265625 42.203125 -13.328125 42.078125 L -33.3125 39.78125 C -34.375 39.65625 -35.222656 39.210938 -35.859375 38.453125 C -36.503906 37.691406 -36.765625 36.773438 -36.640625 35.703125 C -36.535156 34.804688 -36.082031 34.050781 -35.28125 33.4375 C -34.488281 32.820312 -33.5625 32.578125 -32.5 32.703125 L -15.90625 34.609375 L -16.53125 35.28125 L -15.109375 22.9375 L -14.765625 23.765625 L -28.484375 22.1875 C -29.546875 22.0625 -30.394531 21.617188 -31.03125 20.859375 C -31.675781 20.097656 -31.9375 19.1875 -31.8125 18.125 C -31.707031 17.21875 -31.253906 16.457031 -30.453125 15.84375 C -29.660156 15.238281 -28.734375 15 -27.671875 15.125 L -13.84375 16.71875 L -14.453125 17.203125 L -12.734375 2.328125 C -12.609375 1.265625 -12.125 0.421875 -11.28125 -0.203125 C -10.445312 -0.835938 -9.515625 -1.097656 -8.484375 -0.984375 Z M -8.484375 -0.984375 "/></g></g></g><g fill="#000000" fill-opacity="1"><g transform="translate(317.135114, 488.733606)"><g><path d="M -7.46875 -2 C -6.4375 -1.726562 -5.671875 -1.148438 -5.171875 -0.265625 C -4.679688 0.609375 -4.578125 1.566406 -4.859375 2.609375 L -11.484375 27.296875 C -11.753906 28.316406 -12.320312 29.085938 -13.1875 29.609375 C -14.0625 30.128906 -15.015625 30.253906 -16.046875 29.984375 C -17.085938 29.703125 -17.851562 29.117188 -18.34375 28.234375 C -18.832031 27.347656 -18.941406 26.394531 -18.671875 25.375 L -17.15625 19.75 L -17.8125 23.859375 C -18.507812 24.703125 -19.304688 25.394531 -20.203125 25.9375 C -21.097656 26.488281 -22.050781 26.894531 -23.0625 27.15625 C -24.070312 27.425781 -25.109375 27.546875 -26.171875 27.515625 C -27.234375 27.484375 -28.265625 27.335938 -29.265625 27.078125 C -30.441406 26.753906 -31.347656 26.144531 -31.984375 25.25 C -32.628906 24.351562 -32.828125 23.445312 -32.578125 22.53125 C -32.222656 21.207031 -31.628906 20.347656 -30.796875 19.953125 C -29.960938 19.554688 -29.144531 19.460938 -28.34375 19.671875 C -27.59375 19.878906 -26.945312 20.207031 -26.40625 20.65625 C -25.863281 21.101562 -25.195312 21.429688 -24.40625 21.640625 C -23.675781 21.835938 -22.898438 21.867188 -22.078125 21.734375 C -21.253906 21.597656 -20.429688 21.253906 -19.609375 20.703125 C -18.796875 20.148438 -18.0625 19.394531 -17.40625 18.4375 C -16.75 17.476562 -16.226562 16.28125 -15.84375 14.84375 L -12.046875 0.6875 C -11.765625 -0.351562 -11.191406 -1.128906 -10.328125 -1.640625 C -9.460938 -2.160156 -8.507812 -2.28125 -7.46875 -2 Z M -7.46875 -2 "/></g></g></g><g fill="#000000" fill-opacity="1"><g transform="translate(294.331843, 483.369554)"><g><path d="M -39.734375 0.40625 C -38.359375 -2.6875 -36.457031 -5.101562 -34.03125 -6.84375 C -31.613281 -8.59375 -28.953125 -9.613281 -26.046875 -9.90625 C -23.140625 -10.195312 -20.253906 -9.707031 -17.390625 -8.4375 C -14.523438 -7.15625 -12.226562 -5.335938 -10.5 -2.984375 C -8.769531 -0.628906 -7.738281 2.03125 -7.40625 5 C -7.070312 7.976562 -7.59375 11.015625 -8.96875 14.109375 C -10.34375 17.191406 -12.242188 19.601562 -14.671875 21.34375 C -17.109375 23.09375 -19.78125 24.117188 -22.6875 24.421875 C -25.601562 24.722656 -28.492188 24.234375 -31.359375 22.953125 C -34.222656 21.679688 -36.515625 19.863281 -38.234375 17.5 C -39.960938 15.132812 -40.988281 12.460938 -41.3125 9.484375 C -41.632812 6.515625 -41.109375 3.488281 -39.734375 0.40625 Z M -32.953125 3.4375 C -33.804688 5.351562 -34.160156 7.1875 -34.015625 8.9375 C -33.878906 10.6875 -33.335938 12.25 -32.390625 13.625 C -31.441406 15 -30.175781 16.035156 -28.59375 16.734375 C -27.007812 17.441406 -25.390625 17.6875 -23.734375 17.46875 C -22.078125 17.257812 -20.546875 16.617188 -19.140625 15.546875 C -17.742188 14.484375 -16.617188 12.992188 -15.765625 11.078125 C -14.929688 9.191406 -14.582031 7.363281 -14.71875 5.59375 C -14.863281 3.832031 -15.410156 2.269531 -16.359375 0.90625 C -17.304688 -0.457031 -18.570312 -1.492188 -20.15625 -2.203125 C -21.738281 -2.898438 -23.359375 -3.144531 -25.015625 -2.9375 C -26.671875 -2.738281 -28.195312 -2.097656 -29.59375 -1.015625 C -31 0.0664062 -32.117188 1.550781 -32.953125 3.4375 Z M -32.953125 3.4375 "/></g></g></g><g fill="#000000" fill-opacity="1"><g transform="translate(262.584531, 469.546581)"><g><path d="M -36.96875 15.609375 C -39.488281 13.890625 -41.039062 12.050781 -41.625 10.09375 C -42.207031 8.144531 -42.144531 6.125 -41.4375 4.03125 C -40.738281 1.9375 -39.65625 -0.179688 -38.1875 -2.328125 L -29.265625 -15.40625 C -28.648438 -16.289062 -27.851562 -16.835938 -26.875 -17.046875 C -25.894531 -17.253906 -24.960938 -17.054688 -24.078125 -16.453125 C -23.191406 -15.835938 -22.660156 -15.03125 -22.484375 -14.03125 C -22.304688 -13.039062 -22.523438 -12.101562 -23.140625 -11.21875 L -32.0625 1.859375 C -32.832031 2.972656 -33.378906 4.078125 -33.703125 5.171875 C -34.035156 6.273438 -34.007812 7.359375 -33.625 8.421875 C -33.25 9.484375 -32.367188 10.492188 -30.984375 11.453125 C -29.617188 12.378906 -28.28125 12.890625 -26.96875 12.984375 C -25.65625 13.078125 -24.441406 12.835938 -23.328125 12.265625 C -22.222656 11.703125 -21.285156 10.863281 -20.515625 9.75 L -11.59375 -3.328125 C -10.976562 -4.210938 -10.175781 -4.753906 -9.1875 -4.953125 C -8.207031 -5.160156 -7.273438 -4.960938 -6.390625 -4.359375 C -5.503906 -3.753906 -4.972656 -2.953125 -4.796875 -1.953125 C -4.617188 -0.960938 -4.835938 -0.0234375 -5.453125 0.859375 L -19.859375 21.96875 C -20.460938 22.84375 -21.257812 23.378906 -22.25 23.578125 C -23.238281 23.785156 -24.175781 23.585938 -25.0625 22.984375 C -25.945312 22.378906 -26.472656 21.578125 -26.640625 20.578125 C -26.816406 19.585938 -26.601562 18.65625 -26 17.78125 L -24.5 15.5625 L -23.84375 16.234375 C -24.53125 16.609375 -25.394531 16.929688 -26.4375 17.203125 C -27.476562 17.472656 -28.585938 17.628906 -29.765625 17.671875 C -30.941406 17.710938 -32.144531 17.578125 -33.375 17.265625 C -34.613281 16.953125 -35.8125 16.398438 -36.96875 15.609375 Z M -36.96875 15.609375 "/></g></g></g><g fill="#000000" fill-opacity="1"><g transform="translate(234.996752, 450.478998)"><g><path d="M -25.328125 20.84375 L -36.078125 10.859375 C -36.804688 10.191406 -37.1875 9.390625 -37.21875 8.453125 C -37.25 7.515625 -36.929688 6.679688 -36.265625 5.953125 C -35.617188 5.253906 -34.832031 4.894531 -33.90625 4.875 C -32.988281 4.863281 -32.164062 5.191406 -31.4375 5.859375 L -20.6875 15.84375 C -19.957031 16.507812 -19.578125 17.3125 -19.546875 18.25 C -19.515625 19.1875 -19.832031 20.019531 -20.5 20.75 C -21.144531 21.445312 -21.925781 21.800781 -22.84375 21.8125 C -23.769531 21.832031 -24.597656 21.507812 -25.328125 20.84375 Z M -35.453125 22 C -36.234375 21.269531 -36.625 20.40625 -36.625 19.40625 C -36.632812 18.414062 -36.273438 17.523438 -35.546875 16.734375 L -16.8125 -3.453125 C -16.414062 -3.867188 -16.175781 -4.289062 -16.09375 -4.71875 C -16.007812 -5.144531 -16.054688 -5.550781 -16.234375 -5.9375 C -16.410156 -6.332031 -16.660156 -6.679688 -16.984375 -6.984375 C -17.347656 -7.328125 -17.742188 -7.566406 -18.171875 -7.703125 C -18.609375 -7.847656 -19.023438 -8.101562 -19.421875 -8.46875 C -19.847656 -8.863281 -20.050781 -9.414062 -20.03125 -10.125 C -20.007812 -10.84375 -19.675781 -11.550781 -19.03125 -12.25 C -18.238281 -13.09375 -17.128906 -13.359375 -15.703125 -13.046875 C -14.273438 -12.734375 -13.035156 -12.085938 -11.984375 -11.109375 C -11.347656 -10.523438 -10.691406 -9.820312 -10.015625 -9 C -9.347656 -8.175781 -8.863281 -7.242188 -8.5625 -6.203125 C -8.257812 -5.160156 -8.269531 -4.003906 -8.59375 -2.734375 C -8.914062 -1.472656 -9.769531 -0.0976562 -11.15625 1.390625 L -30.09375 21.796875 C -30.820312 22.585938 -31.695312 23.003906 -32.71875 23.046875 C -33.75 23.085938 -34.660156 22.738281 -35.453125 22 Z M -35.453125 22 "/></g></g></g><g fill="#000000" fill-opacity="1"><g transform="translate(218.386409, 435.885805)"><g><path d="M -39.03125 20.59375 L -52.03125 4.4375 C -52.695312 3.601562 -52.988281 2.691406 -52.90625 1.703125 C -52.832031 0.710938 -52.378906 -0.113281 -51.546875 -0.78125 C -50.742188 -1.425781 -49.863281 -1.664062 -48.90625 -1.5 C -47.957031 -1.34375 -47.148438 -0.847656 -46.484375 -0.015625 L -35.625 13.484375 L -36.796875 13.71875 L -27.390625 6.15625 L -27.46875 6.84375 L -36.546875 -4.421875 C -37.210938 -5.265625 -37.503906 -6.179688 -37.421875 -7.171875 C -37.347656 -8.160156 -36.894531 -8.992188 -36.0625 -9.671875 C -35.25 -10.316406 -34.367188 -10.554688 -33.421875 -10.390625 C -32.472656 -10.234375 -31.664062 -9.734375 -31 -8.890625 L -22.03125 2.25 L -22.609375 2.3125 L -12.875 -5.53125 L -13 -4.796875 L -23.828125 -18.25 C -24.492188 -19.082031 -24.769531 -20.003906 -24.65625 -21.015625 C -24.550781 -22.035156 -24.128906 -22.84375 -23.390625 -23.4375 C -22.585938 -24.082031 -21.703125 -24.332031 -20.734375 -24.1875 C -19.765625 -24.039062 -18.945312 -23.550781 -18.28125 -22.71875 L -5.28125 -6.5625 C -4.601562 -5.726562 -4.316406 -4.800781 -4.421875 -3.78125 C -4.535156 -2.757812 -5.015625 -1.910156 -5.859375 -1.234375 L -33.71875 21.1875 C -34.550781 21.851562 -35.472656 22.128906 -36.484375 22.015625 C -37.503906 21.898438 -38.351562 21.425781 -39.03125 20.59375 Z M -39.03125 20.59375 "/></g></g></g><g fill="#000000" fill-opacity="1"><g transform="translate(198.280312, 411.529824)"><g><path d="M -40.03125 -2.703125 C -41.507812 -5.367188 -42.066406 -7.707031 -41.703125 -9.71875 C -41.347656 -11.726562 -40.382812 -13.507812 -38.8125 -15.0625 C -37.25 -16.613281 -35.332031 -18.019531 -33.0625 -19.28125 L -19.203125 -26.9375 C -18.265625 -27.457031 -17.304688 -27.582031 -16.328125 -27.3125 C -15.359375 -27.050781 -14.613281 -26.453125 -14.09375 -25.515625 C -13.582031 -24.578125 -13.472656 -23.625 -13.765625 -22.65625 C -14.054688 -21.695312 -14.671875 -20.957031 -15.609375 -20.4375 L -29.46875 -12.78125 C -30.65625 -12.125 -31.644531 -11.375 -32.4375 -10.53125 C -33.226562 -9.695312 -33.691406 -8.722656 -33.828125 -7.609375 C -33.960938 -6.492188 -33.625 -5.195312 -32.8125 -3.71875 C -32.019531 -2.28125 -31.054688 -1.222656 -29.921875 -0.546875 C -28.796875 0.128906 -27.609375 0.460938 -26.359375 0.453125 C -25.109375 0.441406 -23.890625 0.109375 -22.703125 -0.546875 L -8.84375 -8.203125 C -7.90625 -8.722656 -6.945312 -8.847656 -5.96875 -8.578125 C -5 -8.304688 -4.253906 -7.703125 -3.734375 -6.765625 C -3.222656 -5.828125 -3.113281 -4.875 -3.40625 -3.90625 C -3.695312 -2.945312 -4.3125 -2.207031 -5.25 -1.6875 L -27.625 10.671875 C -28.550781 11.191406 -29.503906 11.316406 -30.484375 11.046875 C -31.460938 10.785156 -32.207031 10.1875 -32.71875 9.25 C -33.238281 8.3125 -33.347656 7.359375 -33.046875 6.390625 C -32.753906 5.421875 -32.144531 4.675781 -31.21875 4.15625 L -28.875 2.859375 L -28.59375 3.78125 C -29.382812 3.789062 -30.300781 3.679688 -31.34375 3.453125 C -32.394531 3.234375 -33.457031 2.878906 -34.53125 2.390625 C -35.601562 1.898438 -36.617188 1.234375 -37.578125 0.390625 C -38.535156 -0.441406 -39.351562 -1.472656 -40.03125 -2.703125 Z M -40.03125 -2.703125 "/></g></g></g><g fill="#000000" fill-opacity="1"><g transform="translate(181.981337, 382.9588)"><g><path d="M -53.328125 -14.953125 C -53.660156 -15.960938 -53.601562 -16.910156 -53.15625 -17.796875 C -52.71875 -18.691406 -51.972656 -19.316406 -50.921875 -19.671875 L -14.65625 -31.828125 C -13.644531 -32.171875 -12.679688 -32.125 -11.765625 -31.6875 C -10.859375 -31.25 -10.238281 -30.523438 -9.90625 -29.515625 C -9.5625 -28.492188 -9.617188 -27.535156 -10.078125 -26.640625 C -10.546875 -25.753906 -11.285156 -25.140625 -12.296875 -24.796875 L -15.171875 -23.828125 L -15.078125 -25.296875 C -14.578125 -25.460938 -13.867188 -25.394531 -12.953125 -25.09375 C -12.046875 -24.789062 -11.082031 -24.285156 -10.0625 -23.578125 C -9.039062 -22.878906 -8.070312 -21.972656 -7.15625 -20.859375 C -6.238281 -19.753906 -5.53125 -18.460938 -5.03125 -16.984375 C -4.132812 -14.285156 -4.007812 -11.601562 -4.65625 -8.9375 C -5.3125 -6.28125 -6.648438 -3.90625 -8.671875 -1.8125 C -10.691406 0.269531 -13.285156 1.84375 -16.453125 2.90625 C -19.648438 3.988281 -22.6875 4.300781 -25.5625 3.84375 C -28.4375 3.394531 -30.929688 2.328125 -33.046875 0.640625 C -35.160156 -1.046875 -36.65625 -3.195312 -37.53125 -5.8125 C -38.09375 -7.488281 -38.351562 -9.117188 -38.3125 -10.703125 C -38.28125 -12.285156 -38.046875 -13.722656 -37.609375 -15.015625 C -37.171875 -16.316406 -36.644531 -17.382812 -36.03125 -18.21875 C -35.425781 -19.050781 -34.847656 -19.5625 -34.296875 -19.75 L -32.828125 -17.90625 L -48.5625 -12.640625 C -49.582031 -12.296875 -50.546875 -12.335938 -51.453125 -12.765625 C -52.359375 -13.203125 -52.984375 -13.929688 -53.328125 -14.953125 Z M -11.78125 -15.6875 C -12.363281 -17.414062 -13.300781 -18.78125 -14.59375 -19.78125 C -15.882812 -20.78125 -17.394531 -21.394531 -19.125 -21.625 C -20.851562 -21.851562 -22.640625 -21.660156 -24.484375 -21.046875 C -26.359375 -20.410156 -27.921875 -19.476562 -29.171875 -18.25 C -30.421875 -17.019531 -31.257812 -15.617188 -31.6875 -14.046875 C -32.113281 -12.472656 -32.035156 -10.820312 -31.453125 -9.09375 C -30.890625 -7.414062 -29.960938 -6.070312 -28.671875 -5.0625 C -27.378906 -4.0625 -25.863281 -3.445312 -24.125 -3.21875 C -22.394531 -3 -20.59375 -3.207031 -18.71875 -3.84375 C -16.875 -4.457031 -15.328125 -5.375 -14.078125 -6.59375 C -12.835938 -7.820312 -12.003906 -9.222656 -11.578125 -10.796875 C -11.148438 -12.378906 -11.21875 -14.007812 -11.78125 -15.6875 Z M -11.78125 -15.6875 "/></g></g></g><g fill="#000000" fill-opacity="1"><g transform="translate(171.083431, 348.842539)"><g/></g></g><g fill="#000000" fill-opacity="1"><g transform="translate(167.217883, 335.207448)"><g><path d="M -44.265625 -21.359375 C -44.390625 -24.328125 -43.941406 -26.988281 -42.921875 -29.34375 C -41.910156 -31.695312 -40.4375 -33.710938 -38.5 -35.390625 C -36.570312 -37.066406 -34.316406 -38.363281 -31.734375 -39.28125 C -29.148438 -40.195312 -26.367188 -40.71875 -23.390625 -40.84375 C -19.390625 -41.007812 -15.722656 -40.4375 -12.390625 -39.125 C -9.054688 -37.8125 -6.363281 -35.828125 -4.3125 -33.171875 C -2.257812 -30.515625 -1.144531 -27.1875 -0.96875 -23.1875 L -0.359375 -8.421875 C -0.304688 -7.347656 -0.625 -6.429688 -1.3125 -5.671875 C -2.007812 -4.921875 -2.894531 -4.523438 -3.96875 -4.484375 L -39.703125 -2.984375 C -40.773438 -2.929688 -41.6875 -3.25 -42.4375 -3.9375 C -43.195312 -4.632812 -43.601562 -5.519531 -43.65625 -6.59375 Z M -8.078125 -22.28125 C -8.179688 -24.863281 -8.9375 -26.953125 -10.34375 -28.546875 C -11.75 -30.140625 -13.570312 -31.269531 -15.8125 -31.9375 C -18.050781 -32.613281 -20.46875 -32.898438 -23.0625 -32.796875 C -25.007812 -32.710938 -26.84375 -32.414062 -28.5625 -31.90625 C -30.289062 -31.40625 -31.804688 -30.671875 -33.109375 -29.703125 C -34.421875 -28.734375 -35.4375 -27.535156 -36.15625 -26.109375 C -36.882812 -24.679688 -37.207031 -23 -37.125 -21.0625 L -36.671875 -10.234375 L -37.25 -10.8125 L -6.953125 -12.09375 L -7.625 -11.6875 Z M -8.078125 -22.28125 "/></g></g></g><g fill="#000000" fill-opacity="1"><g transform="translate(165.497768, 295.275303)"><g><path d="M 3.578125 -19.3125 C 3.046875 -15.84375 1.859375 -12.941406 0.015625 -10.609375 C -1.816406 -8.273438 -4.082031 -6.613281 -6.78125 -5.625 C -9.476562 -4.632812 -12.394531 -4.378906 -15.53125 -4.859375 C -19.195312 -5.421875 -22.210938 -6.644531 -24.578125 -8.53125 C -26.941406 -10.414062 -28.632812 -12.664062 -29.65625 -15.28125 C -30.675781 -17.90625 -30.984375 -20.5625 -30.578125 -23.25 C -30.265625 -25.320312 -29.535156 -27.222656 -28.390625 -28.953125 C -27.242188 -30.679688 -25.820312 -32.144531 -24.125 -33.34375 C -22.425781 -34.539062 -20.53125 -35.410156 -18.4375 -35.953125 C -16.351562 -36.492188 -14.207031 -36.597656 -12 -36.265625 C -11.03125 -36.078125 -10.296875 -35.566406 -9.796875 -34.734375 C -9.296875 -33.910156 -9.125 -33.007812 -9.28125 -32.03125 L -12.828125 -8.65625 L -19.21875 -7.75 L -15.796875 -30.203125 L -14.78125 -28.671875 L -16.4375 -28.921875 C -17.644531 -29.023438 -18.773438 -28.769531 -19.828125 -28.15625 C -20.878906 -27.539062 -21.765625 -26.710938 -22.484375 -25.671875 C -23.203125 -24.628906 -23.65625 -23.476562 -23.84375 -22.21875 C -24.03125 -21 -24.039062 -19.832031 -23.875 -18.71875 C -23.71875 -17.613281 -23.3125 -16.613281 -22.65625 -15.71875 C -22 -14.820312 -21.050781 -14.050781 -19.8125 -13.40625 C -18.582031 -12.757812 -16.96875 -12.285156 -14.96875 -11.984375 C -12.757812 -11.648438 -10.820312 -11.820312 -9.15625 -12.5 C -7.488281 -13.1875 -6.144531 -14.191406 -5.125 -15.515625 C -4.101562 -16.847656 -3.46875 -18.332031 -3.21875 -19.96875 C -2.988281 -21.46875 -2.925781 -22.6875 -3.03125 -23.625 C -3.144531 -24.5625 -3.332031 -25.332031 -3.59375 -25.9375 C -3.851562 -26.539062 -4.078125 -27.082031 -4.265625 -27.5625 C -4.515625 -28.363281 -4.585938 -29.085938 -4.484375 -29.734375 C -4.347656 -30.628906 -3.929688 -31.328125 -3.234375 -31.828125 C -2.535156 -32.328125 -1.773438 -32.515625 -0.953125 -32.390625 C 0.148438 -32.222656 1.0625 -31.5 1.78125 -30.21875 C 2.519531 -29.019531 3.082031 -27.410156 3.46875 -25.390625 C 3.851562 -23.367188 3.890625 -21.34375 3.578125 -19.3125 Z M 3.578125 -19.3125 "/></g></g></g><g fill="#000000" fill-opacity="1"><g transform="translate(170.172116, 262.873113)"><g><path d="M -29.65625 -15.703125 C -29.414062 -16.441406 -29.003906 -17.0625 -28.421875 -17.5625 C -27.847656 -18.070312 -27.140625 -18.351562 -26.296875 -18.40625 L -3.6875 -20.46875 L -3.515625 -18.984375 L -20.84375 -34.546875 C -22.1875 -35.734375 -22.585938 -37.007812 -22.046875 -38.375 C -21.722656 -39.351562 -21.15625 -40.046875 -20.34375 -40.453125 C -19.53125 -40.859375 -18.675781 -40.914062 -17.78125 -40.625 C -17.507812 -40.53125 -17.234375 -40.378906 -16.953125 -40.171875 C -16.671875 -39.972656 -16.410156 -39.773438 -16.171875 -39.578125 L 4.359375 -20.546875 C 5.554688 -19.441406 5.96875 -18.191406 5.59375 -16.796875 C 5.457031 -16.015625 5.078125 -15.34375 4.453125 -14.78125 C 3.835938 -14.226562 3.0625 -13.914062 2.125 -13.84375 L -25.703125 -10.96875 C -25.921875 -10.957031 -26.203125 -10.957031 -26.546875 -10.96875 C -26.890625 -10.976562 -27.273438 -11.050781 -27.703125 -11.1875 C -28.410156 -11.425781 -29 -11.972656 -29.46875 -12.828125 C -29.945312 -13.679688 -30.007812 -14.640625 -29.65625 -15.703125 Z M -29.65625 -15.703125 "/></g></g></g><g fill="#000000" fill-opacity="1"><g transform="translate(179.598407, 233.329467)"><g><path d="M 9.8125 -17 C 8.15625 -13.90625 6.070312 -11.566406 3.5625 -9.984375 C 1.050781 -8.410156 -1.632812 -7.601562 -4.5 -7.5625 C -7.375 -7.53125 -10.210938 -8.269531 -13.015625 -9.78125 C -16.285156 -11.53125 -18.71875 -13.6875 -20.3125 -16.25 C -21.90625 -18.820312 -22.75 -21.507812 -22.84375 -24.3125 C -22.9375 -27.125 -22.34375 -29.734375 -21.0625 -32.140625 C -20.0625 -33.992188 -18.734375 -35.539062 -17.078125 -36.78125 C -15.429688 -38.03125 -13.601562 -38.929688 -11.59375 -39.484375 C -9.582031 -40.046875 -7.503906 -40.234375 -5.359375 -40.046875 C -3.210938 -39.867188 -1.15625 -39.253906 0.8125 -38.203125 C 1.65625 -37.691406 2.175781 -36.960938 2.375 -36.015625 C 2.570312 -35.066406 2.4375 -34.15625 1.96875 -33.28125 L -9.203125 -12.453125 L -15.53125 -13.734375 L -4.796875 -33.75 L -4.34375 -31.96875 L -5.828125 -32.765625 C -6.921875 -33.253906 -8.0625 -33.382812 -9.25 -33.15625 C -10.445312 -32.925781 -11.5625 -32.441406 -12.59375 -31.703125 C -13.625 -30.972656 -14.445312 -30.046875 -15.0625 -28.921875 C -15.632812 -27.835938 -16.03125 -26.742188 -16.25 -25.640625 C -16.46875 -24.535156 -16.414062 -23.453125 -16.09375 -22.390625 C -15.769531 -21.328125 -15.132812 -20.28125 -14.1875 -19.25 C -13.238281 -18.226562 -11.875 -17.242188 -10.09375 -16.296875 C -8.125 -15.242188 -6.238281 -14.757812 -4.4375 -14.84375 C -2.644531 -14.925781 -1.046875 -15.421875 0.359375 -16.328125 C 1.765625 -17.242188 2.859375 -18.429688 3.640625 -19.890625 C 4.359375 -21.234375 4.820312 -22.363281 5.03125 -23.28125 C 5.25 -24.207031 5.332031 -24.992188 5.28125 -25.640625 C 5.238281 -26.296875 5.207031 -26.882812 5.1875 -27.40625 C 5.226562 -28.238281 5.40625 -28.941406 5.71875 -29.515625 C 6.144531 -30.316406 6.769531 -30.832031 7.59375 -31.0625 C 8.425781 -31.300781 9.207031 -31.226562 9.9375 -30.84375 C 10.914062 -30.3125 11.53125 -29.320312 11.78125 -27.875 C 12.070312 -26.5 12.0625 -24.796875 11.75 -22.765625 C 11.4375 -20.742188 10.789062 -18.820312 9.8125 -17 Z M 9.8125 -17 "/></g></g></g><g fill="#000000" fill-opacity="1"><g transform="translate(195.871766, 203.905311)"><g><path d="M 3.921875 -12.015625 C 4.796875 -11.398438 5.316406 -10.585938 5.484375 -9.578125 C 5.660156 -8.566406 5.4375 -7.625 4.8125 -6.75 C 4.21875 -5.914062 3.421875 -5.421875 2.421875 -5.265625 C 1.421875 -5.117188 0.484375 -5.351562 -0.390625 -5.96875 L -31.546875 -28.171875 C -32.410156 -28.796875 -32.925781 -29.609375 -33.09375 -30.609375 C -33.257812 -31.617188 -33.03125 -32.5625 -32.40625 -33.4375 C -31.78125 -34.3125 -30.976562 -34.816406 -30 -34.953125 C -29.019531 -35.085938 -28.097656 -34.84375 -27.234375 -34.21875 Z M 3.921875 -12.015625 "/></g></g></g><g fill="#000000" fill-opacity="1"><g transform="translate(203.128918, 192.134707)"><g><path d="M 12.59375 -37.6875 C 15.0625 -35.375 16.722656 -32.785156 17.578125 -29.921875 C 18.441406 -27.066406 18.535156 -24.21875 17.859375 -21.375 C 17.179688 -18.539062 15.773438 -15.976562 13.640625 -13.6875 C 11.492188 -11.394531 9.023438 -9.8125 6.234375 -8.9375 C 3.453125 -8.070312 0.601562 -7.96875 -2.3125 -8.625 C -5.226562 -9.28125 -7.921875 -10.765625 -10.390625 -13.078125 C -12.859375 -15.390625 -14.519531 -17.976562 -15.375 -20.84375 C -16.226562 -23.707031 -16.328125 -26.566406 -15.671875 -29.421875 C -15.015625 -32.273438 -13.613281 -34.847656 -11.46875 -37.140625 C -9.332031 -39.429688 -6.859375 -41.003906 -4.046875 -41.859375 C -1.242188 -42.710938 1.609375 -42.804688 4.515625 -42.140625 C 7.429688 -41.484375 10.125 -40 12.59375 -37.6875 Z M 7.53125 -32.265625 C 5.988281 -33.703125 4.363281 -34.640625 2.65625 -35.078125 C 0.945312 -35.523438 -0.707031 -35.519531 -2.3125 -35.0625 C -3.914062 -34.601562 -5.304688 -33.742188 -6.484375 -32.484375 C -7.671875 -31.210938 -8.4375 -29.765625 -8.78125 -28.140625 C -9.125 -26.515625 -9.015625 -24.863281 -8.453125 -23.1875 C -7.898438 -21.507812 -6.851562 -19.953125 -5.3125 -18.515625 C -3.800781 -17.109375 -2.191406 -16.1875 -0.484375 -15.75 C 1.210938 -15.3125 2.863281 -15.3125 4.46875 -15.75 C 6.082031 -16.195312 7.484375 -17.054688 8.671875 -18.328125 C 9.847656 -19.585938 10.601562 -21.035156 10.9375 -22.671875 C 11.28125 -24.316406 11.175781 -25.972656 10.625 -27.640625 C 10.070312 -29.316406 9.039062 -30.859375 7.53125 -32.265625 Z M 7.53125 -32.265625 "/></g></g></g><g fill="#000000" fill-opacity="1"><g transform="translate(226.423606, 166.636023)"><g><path d="M -2.921875 -39.71875 C -0.597656 -41.425781 1.914062 -42.367188 4.625 -42.546875 C 7.332031 -42.722656 9.984375 -42.175781 12.578125 -40.90625 C 15.179688 -39.644531 17.484375 -37.65625 19.484375 -34.9375 C 21.484375 -32.207031 22.707031 -29.40625 23.15625 -26.53125 C 23.613281 -23.65625 23.367188 -20.960938 22.421875 -18.453125 C 21.484375 -15.941406 19.890625 -13.851562 17.640625 -12.1875 C 16.296875 -11.207031 14.882812 -10.503906 13.40625 -10.078125 C 11.925781 -9.660156 10.5 -9.457031 9.125 -9.46875 C 7.75 -9.488281 6.570312 -9.660156 5.59375 -9.984375 C 4.613281 -10.304688 3.945312 -10.703125 3.59375 -11.171875 L 4.6875 -12.96875 L 14.328125 0.15625 C 14.960938 1.019531 15.207031 1.945312 15.0625 2.9375 C 14.925781 3.9375 14.425781 4.753906 13.5625 5.390625 C 12.695312 6.023438 11.773438 6.269531 10.796875 6.125 C 9.816406 5.976562 8.992188 5.457031 8.328125 4.5625 L -14.15625 -26.015625 C -14.78125 -26.867188 -15.019531 -27.796875 -14.875 -28.796875 C -14.738281 -29.796875 -14.238281 -30.613281 -13.375 -31.25 C -12.507812 -31.882812 -11.578125 -32.117188 -10.578125 -31.953125 C -9.585938 -31.785156 -8.78125 -31.273438 -8.15625 -30.421875 L -6.34375 -27.96875 L -7.53125 -27.796875 C -7.851562 -28.234375 -8.007812 -28.925781 -8 -29.875 C -7.988281 -30.832031 -7.8125 -31.910156 -7.46875 -33.109375 C -7.125 -34.316406 -6.570312 -35.503906 -5.8125 -36.671875 C -5.050781 -37.835938 -4.085938 -38.851562 -2.921875 -39.71875 Z M 0.34375 -33.671875 C -1.113281 -32.597656 -2.117188 -31.289062 -2.671875 -29.75 C -3.234375 -28.21875 -3.363281 -26.601562 -3.0625 -24.90625 C -2.769531 -23.207031 -2.035156 -21.5625 -0.859375 -19.96875 C 0.296875 -18.394531 1.648438 -17.191406 3.203125 -16.359375 C 4.765625 -15.535156 6.359375 -15.160156 7.984375 -15.234375 C 9.617188 -15.316406 11.164062 -15.894531 12.625 -16.96875 C 14.09375 -18.050781 15.097656 -19.351562 15.640625 -20.875 C 16.179688 -22.394531 16.289062 -24.019531 15.96875 -25.75 C 15.65625 -27.488281 14.921875 -29.144531 13.765625 -30.71875 C 12.585938 -32.3125 11.226562 -33.503906 9.6875 -34.296875 C 8.15625 -35.085938 6.582031 -35.453125 4.96875 -35.390625 C 3.351562 -35.328125 1.8125 -34.753906 0.34375 -33.671875 Z M 0.34375 -33.671875 "/></g></g></g><g fill="#000000" fill-opacity="1"><g transform="translate(254.371185, 145.768844)"><g><path d="M 17.921875 -8.046875 C 14.765625 -6.503906 11.703125 -5.828125 8.734375 -6.015625 C 5.773438 -6.210938 3.117188 -7.132812 0.765625 -8.78125 C -1.578125 -10.4375 -3.445312 -12.691406 -4.84375 -15.546875 C -6.46875 -18.878906 -7.171875 -22.050781 -6.953125 -25.0625 C -6.742188 -28.082031 -5.859375 -30.753906 -4.296875 -33.078125 C -2.734375 -35.410156 -0.726562 -37.175781 1.71875 -38.375 C 3.613281 -39.289062 5.597656 -39.769531 7.671875 -39.8125 C 9.742188 -39.851562 11.753906 -39.515625 13.703125 -38.796875 C 15.660156 -38.085938 17.453125 -37.023438 19.078125 -35.609375 C 20.710938 -34.203125 22.019531 -32.5 23 -30.5 C 23.394531 -29.59375 23.394531 -28.695312 23 -27.8125 C 22.601562 -26.925781 21.960938 -26.265625 21.078125 -25.828125 L -0.171875 -15.46875 L -4.5625 -20.21875 L 15.859375 -30.171875 L 15.1875 -28.46875 L 14.453125 -29.96875 C 13.847656 -31.007812 12.992188 -31.785156 11.890625 -32.296875 C 10.785156 -32.816406 9.601562 -33.078125 8.34375 -33.078125 C 7.082031 -33.085938 5.875 -32.816406 4.71875 -32.265625 C 3.613281 -31.722656 2.648438 -31.066406 1.828125 -30.296875 C 1.003906 -29.535156 0.410156 -28.625 0.046875 -27.5625 C -0.316406 -26.507812 -0.410156 -25.289062 -0.234375 -23.90625 C -0.0664062 -22.53125 0.457031 -20.929688 1.34375 -19.109375 C 2.320312 -17.109375 3.566406 -15.613281 5.078125 -14.625 C 6.585938 -13.644531 8.175781 -13.113281 9.84375 -13.03125 C 11.507812 -12.945312 13.085938 -13.269531 14.578125 -14 C 15.953125 -14.664062 16.992188 -15.3125 17.703125 -15.9375 C 18.410156 -16.5625 18.9375 -17.148438 19.28125 -17.703125 C 19.632812 -18.265625 19.957031 -18.757812 20.25 -19.1875 C 20.757812 -19.832031 21.3125 -20.300781 21.90625 -20.59375 C 22.71875 -20.988281 23.523438 -21.039062 24.328125 -20.75 C 25.140625 -20.457031 25.726562 -19.9375 26.09375 -19.1875 C 26.582031 -18.1875 26.507812 -17.03125 25.875 -15.71875 C 25.300781 -14.4375 24.296875 -13.0625 22.859375 -11.59375 C 21.421875 -10.125 19.773438 -8.941406 17.921875 -8.046875 Z M 17.921875 -8.046875 "/></g></g></g><g fill="#000000" fill-opacity="1"><g transform="translate(284.177407, 131.348069)"><g><path d="M 7.390625 -2.296875 C 6.359375 -1.984375 5.398438 -2.066406 4.515625 -2.546875 C 3.628906 -3.035156 3.023438 -3.789062 2.703125 -4.8125 L -4.90625 -29.21875 C -5.21875 -30.226562 -5.144531 -31.179688 -4.6875 -32.078125 C -4.238281 -32.984375 -3.5 -33.59375 -2.46875 -33.90625 C -1.445312 -34.226562 -0.492188 -34.144531 0.390625 -33.65625 C 1.285156 -33.175781 1.890625 -32.429688 2.203125 -31.421875 L 3.9375 -25.859375 L 2.28125 -29.703125 C 2.414062 -30.773438 2.710938 -31.78125 3.171875 -32.71875 C 3.640625 -33.664062 4.234375 -34.519531 4.953125 -35.28125 C 5.671875 -36.039062 6.484375 -36.691406 7.390625 -37.234375 C 8.296875 -37.785156 9.238281 -38.21875 10.21875 -38.53125 C 11.394531 -38.894531 12.492188 -38.863281 13.515625 -38.4375 C 14.535156 -38.019531 15.191406 -37.359375 15.484375 -36.453125 C 15.890625 -35.148438 15.84375 -34.109375 15.34375 -33.328125 C 14.851562 -32.546875 14.210938 -32.035156 13.421875 -31.796875 C 12.679688 -31.554688 11.957031 -31.484375 11.25 -31.578125 C 10.550781 -31.671875 9.8125 -31.59375 9.03125 -31.34375 C 8.3125 -31.125 7.640625 -30.734375 7.015625 -30.171875 C 6.398438 -29.609375 5.894531 -28.875 5.5 -27.96875 C 5.113281 -27.070312 4.894531 -26.039062 4.84375 -24.875 C 4.800781 -23.71875 5.003906 -22.425781 5.453125 -21 L 9.8125 -7.015625 C 10.132812 -5.992188 10.066406 -5.03125 9.609375 -4.125 C 9.148438 -3.226562 8.410156 -2.617188 7.390625 -2.296875 Z M 7.390625 -2.296875 "/></g></g></g><g fill="#000000" fill-opacity="1"><g transform="translate(307.571574, 124.184481)"><g/></g></g><g fill="#000000" fill-opacity="1"><g transform="translate(322.821093, 121.113527)"><g><path d="M 7.25 -0.921875 C 6.070312 -0.785156 5.125 -0.992188 4.40625 -1.546875 C 3.6875 -2.109375 3.253906 -2.984375 3.109375 -4.171875 L 3 -5.21875 C 2.851562 -6.40625 3.0625 -7.351562 3.625 -8.0625 C 4.1875 -8.78125 5.054688 -9.207031 6.234375 -9.34375 L 7.03125 -9.4375 C 8.226562 -9.582031 9.179688 -9.375 9.890625 -8.8125 C 10.609375 -8.25 11.039062 -7.375 11.1875 -6.1875 L 11.296875 -5.140625 C 11.441406 -3.953125 11.234375 -3.003906 10.671875 -2.296875 C 10.117188 -1.585938 9.242188 -1.160156 8.046875 -1.015625 Z M 7.25 -0.921875 "/></g></g></g><g fill="#000000" fill-opacity="1"><g transform="translate(336.352996, 119.396173)"><g/></g></g><g fill="#000000" fill-opacity="1"><g transform="translate(350.88011, 118.096045)"><g><path d="M 8.515625 0.71875 C 7.359375 0.625 6.453125 0.1875 5.796875 -0.59375 C 5.140625 -1.382812 4.851562 -2.3125 4.9375 -3.375 L 7.96875 -39.015625 C 8.050781 -40.085938 8.484375 -40.953125 9.265625 -41.609375 C 10.046875 -42.265625 10.972656 -42.550781 12.046875 -42.46875 L 32.078125 -40.765625 C 33.148438 -40.671875 34.019531 -40.253906 34.6875 -39.515625 C 35.351562 -38.773438 35.640625 -37.867188 35.546875 -36.796875 C 35.472656 -35.890625 35.046875 -35.117188 34.265625 -34.484375 C 33.484375 -33.847656 32.554688 -33.578125 31.484375 -33.671875 L 14.84375 -35.078125 L 15.453125 -35.78125 L 14.390625 -23.375 L 14.03125 -24.21875 L 27.796875 -23.046875 C 28.867188 -22.953125 29.734375 -22.535156 30.390625 -21.796875 C 31.046875 -21.066406 31.328125 -20.164062 31.234375 -19.09375 C 31.160156 -18.1875 30.734375 -17.414062 29.953125 -16.78125 C 29.179688 -16.144531 28.257812 -15.875 27.1875 -15.96875 L 13.3125 -17.140625 L 13.90625 -17.640625 L 12.640625 -2.71875 C 12.554688 -1.65625 12.101562 -0.789062 11.28125 -0.125 C 10.46875 0.53125 9.546875 0.8125 8.515625 0.71875 Z M 8.515625 0.71875 "/></g></g></g><g fill="#000000" fill-opacity="1"><g transform="translate(381.822752, 120.327774)"><g><path d="M 36 -24.84375 C 37.039062 -24.570312 37.804688 -23.992188 38.296875 -23.109375 C 38.796875 -22.234375 38.914062 -21.28125 38.65625 -20.25 L 34.6875 -5.03125 C 33.59375 -0.800781 31.539062 2.242188 28.53125 4.109375 C 25.53125 5.972656 21.820312 6.328125 17.40625 5.171875 C 12.96875 4.023438 9.898438 1.910156 8.203125 -1.171875 C 6.515625 -4.265625 6.21875 -7.925781 7.3125 -12.15625 L 11.28125 -27.375 C 11.539062 -28.40625 12.097656 -29.179688 12.953125 -29.703125 C 13.816406 -30.234375 14.769531 -30.363281 15.8125 -30.09375 C 16.851562 -29.820312 17.617188 -29.242188 18.109375 -28.359375 C 18.609375 -27.484375 18.726562 -26.53125 18.46875 -25.5 L 14.5 -10.28125 C 13.875 -7.851562 13.945312 -5.910156 14.71875 -4.453125 C 15.488281 -2.992188 16.957031 -1.984375 19.125 -1.421875 C 21.3125 -0.847656 23.097656 -1.007812 24.484375 -1.90625 C 25.867188 -2.8125 26.875 -4.476562 27.5 -6.90625 L 31.46875 -22.125 C 31.726562 -23.15625 32.285156 -23.929688 33.140625 -24.453125 C 34.003906 -24.984375 34.957031 -25.113281 36 -24.84375 Z M 36 -24.84375 "/></g></g></g><g fill="#000000" fill-opacity="1"><g transform="translate(414.08029, 129.173497)"><g><path d="M 12.609375 0.96875 C 12.210938 1.96875 11.539062 2.671875 10.59375 3.078125 C 9.65625 3.484375 8.691406 3.488281 7.703125 3.09375 C 6.742188 2.707031 6.070312 2.046875 5.6875 1.109375 C 5.3125 0.179688 5.320312 -0.78125 5.71875 -1.78125 L 19.953125 -37.28125 C 20.347656 -38.269531 21.015625 -38.960938 21.953125 -39.359375 C 22.898438 -39.765625 23.867188 -39.765625 24.859375 -39.359375 C 25.859375 -38.960938 26.535156 -38.304688 26.890625 -37.390625 C 27.253906 -36.472656 27.238281 -35.519531 26.84375 -34.53125 Z M 12.609375 0.96875 "/></g></g></g><g fill="#000000" fill-opacity="1"><g transform="translate(427.938779, 134.651708)"><g><path d="M 12.484375 1.984375 C 12.003906 2.953125 11.28125 3.597656 10.3125 3.921875 C 9.351562 4.242188 8.394531 4.164062 7.4375 3.6875 C 6.507812 3.226562 5.890625 2.519531 5.578125 1.5625 C 5.273438 0.601562 5.363281 -0.359375 5.84375 -1.328125 L 22.859375 -35.578125 C 23.335938 -36.535156 24.054688 -37.175781 25.015625 -37.5 C 25.984375 -37.820312 26.953125 -37.742188 27.921875 -37.265625 C 28.878906 -36.785156 29.5 -36.070312 29.78125 -35.125 C 30.070312 -34.175781 29.976562 -33.222656 29.5 -32.265625 Z M 12.484375 1.984375 "/></g></g></g><g fill="#000000" fill-opacity="1"><g transform="translate(440.735568, 140.081031)"><g><path d="M 15.078125 10.828125 C 12.679688 9.222656 10.722656 7.476562 9.203125 5.59375 C 7.679688 3.71875 6.550781 1.4375 5.8125 -1.25 C 5.625 -1.914062 5.566406 -2.570312 5.640625 -3.21875 C 5.722656 -3.863281 5.925781 -4.421875 6.25 -4.890625 C 6.769531 -5.679688 7.515625 -6.1875 8.484375 -6.40625 C 9.453125 -6.632812 10.367188 -6.460938 11.234375 -5.890625 C 11.878906 -5.460938 12.328125 -4.863281 12.578125 -4.09375 C 13.160156 -2.164062 13.910156 -0.5 14.828125 0.90625 C 15.742188 2.3125 17.144531 3.644531 19.03125 4.90625 C 20.3125 5.757812 21.613281 6.34375 22.9375 6.65625 C 24.257812 6.976562 25.46875 7.023438 26.5625 6.796875 C 27.664062 6.566406 28.507812 6.015625 29.09375 5.140625 C 29.78125 4.117188 30.054688 3.039062 29.921875 1.90625 C 29.785156 0.78125 29.242188 -0.453125 28.296875 -1.796875 C 27.359375 -3.148438 26.007812 -4.617188 24.25 -6.203125 C 22.582031 -7.703125 21.234375 -9.207031 20.203125 -10.71875 C 19.171875 -12.226562 18.476562 -13.734375 18.125 -15.234375 C 17.769531 -16.742188 17.742188 -18.25 18.046875 -19.75 C 18.359375 -21.257812 19.007812 -22.75 20 -24.21875 C 21.488281 -26.457031 23.332031 -27.976562 25.53125 -28.78125 C 27.738281 -29.582031 30.09375 -29.738281 32.59375 -29.25 C 35.101562 -28.769531 37.539062 -27.738281 39.90625 -26.15625 C 42.132812 -24.664062 43.976562 -22.953125 45.4375 -21.015625 C 46.894531 -19.078125 47.882812 -17.191406 48.40625 -15.359375 C 48.863281 -13.910156 48.75 -12.671875 48.0625 -11.640625 C 47.550781 -10.890625 46.796875 -10.398438 45.796875 -10.171875 C 44.804688 -9.941406 43.914062 -10.085938 43.125 -10.609375 C 42.613281 -10.953125 42.253906 -11.421875 42.046875 -12.015625 C 41.828125 -12.847656 41.394531 -13.789062 40.75 -14.84375 C 40.113281 -15.894531 39.375 -16.910156 38.53125 -17.890625 C 37.695312 -18.867188 36.835938 -19.65625 35.953125 -20.25 C 34.472656 -21.238281 33.101562 -21.882812 31.84375 -22.1875 C 30.582031 -22.488281 29.472656 -22.484375 28.515625 -22.171875 C 27.566406 -21.859375 26.804688 -21.273438 26.234375 -20.421875 C 25.546875 -19.390625 25.28125 -18.335938 25.4375 -17.265625 C 25.59375 -16.203125 26.101562 -15.09375 26.96875 -13.9375 C 27.84375 -12.789062 28.96875 -11.535156 30.34375 -10.171875 C 32.132812 -8.410156 33.640625 -6.753906 34.859375 -5.203125 C 36.085938 -3.648438 36.941406 -2.125 37.421875 -0.625 C 37.910156 0.875 38.003906 2.398438 37.703125 3.953125 C 37.398438 5.515625 36.664062 7.171875 35.5 8.921875 C 34.007812 11.148438 32.109375 12.660156 29.796875 13.453125 C 27.484375 14.242188 25.035156 14.394531 22.453125 13.90625 C 19.878906 13.425781 17.421875 12.398438 15.078125 10.828125 Z M 15.078125 10.828125 "/></g></g></g><g fill="#000000" fill-opacity="1"><g transform="translate(468.558845, 158.913216)"><g><path d="M 25.125 -21.078125 L 35.96875 -11.203125 C 36.707031 -10.535156 37.09375 -9.734375 37.125 -8.796875 C 37.164062 -7.859375 36.859375 -7.023438 36.203125 -6.296875 C 35.554688 -5.597656 34.773438 -5.234375 33.859375 -5.203125 C 32.953125 -5.179688 32.128906 -5.503906 31.390625 -6.171875 L 20.546875 -16.046875 C 19.816406 -16.710938 19.425781 -17.507812 19.375 -18.4375 C 19.332031 -19.375 19.644531 -20.207031 20.3125 -20.9375 C 20.945312 -21.632812 21.722656 -22 22.640625 -22.03125 C 23.566406 -22.0625 24.394531 -21.742188 25.125 -21.078125 Z M 35.21875 -22.328125 C 36.019531 -21.609375 36.425781 -20.753906 36.4375 -19.765625 C 36.457031 -18.773438 36.101562 -17.878906 35.375 -17.078125 L 16.84375 3.28125 C 16.457031 3.707031 16.222656 4.132812 16.140625 4.5625 C 16.054688 4.988281 16.101562 5.394531 16.28125 5.78125 C 16.457031 6.164062 16.710938 6.507812 17.046875 6.8125 C 17.421875 7.144531 17.820312 7.382812 18.25 7.53125 C 18.6875 7.675781 19.101562 7.925781 19.5 8.28125 C 19.925781 8.675781 20.132812 9.226562 20.125 9.9375 C 20.113281 10.65625 19.789062 11.363281 19.15625 12.0625 C 18.375 12.914062 17.265625 13.191406 15.828125 12.890625 C 14.398438 12.597656 13.15625 11.96875 12.09375 11 C 11.445312 10.414062 10.785156 9.710938 10.109375 8.890625 C 9.429688 8.078125 8.929688 7.148438 8.609375 6.109375 C 8.296875 5.078125 8.296875 3.925781 8.609375 2.65625 C 8.929688 1.394531 9.773438 0.015625 11.140625 -1.484375 L 29.875 -22.078125 C 30.601562 -22.878906 31.476562 -23.300781 32.5 -23.34375 C 33.519531 -23.394531 34.425781 -23.054688 35.21875 -22.328125 Z M 35.21875 -22.328125 "/></g></g></g><g fill="#000000" fill-opacity="1"><g transform="translate(485.308513, 173.098013)"><g><path d="M 45.796875 3.03125 C 46.472656 3.863281 46.753906 4.773438 46.640625 5.765625 C 46.535156 6.753906 46.050781 7.597656 45.1875 8.296875 L 24.8125 24.734375 C 23.976562 25.410156 23.0625 25.703125 22.0625 25.609375 C 21.0625 25.515625 20.222656 25.050781 19.546875 24.21875 C 18.867188 23.382812 18.59375 22.46875 18.71875 21.46875 C 18.84375 20.476562 19.320312 19.644531 20.15625 18.96875 L 22.515625 17.0625 L 22.9375 18.46875 C 22.53125 18.800781 21.84375 18.984375 20.875 19.015625 C 19.914062 19.046875 18.835938 18.910156 17.640625 18.609375 C 16.441406 18.304688 15.21875 17.789062 13.96875 17.0625 C 12.726562 16.34375 11.617188 15.378906 10.640625 14.171875 C 8.847656 11.953125 7.796875 9.484375 7.484375 6.765625 C 7.171875 4.046875 7.597656 1.351562 8.765625 -1.3125 C 9.929688 -3.976562 11.8125 -6.359375 14.40625 -8.453125 C 17.03125 -10.578125 19.769531 -11.925781 22.625 -12.5 C 25.476562 -13.070312 28.1875 -12.9375 30.75 -12.09375 C 33.320312 -11.25 35.472656 -9.753906 37.203125 -7.609375 C 38.316406 -6.222656 39.132812 -4.78125 39.65625 -3.28125 C 40.175781 -1.789062 40.453125 -0.363281 40.484375 1 C 40.523438 2.375 40.40625 3.554688 40.125 4.546875 C 39.84375 5.535156 39.476562 6.21875 39.03125 6.59375 L 37.015625 5.375 L 40.53125 2.53125 C 41.363281 1.851562 42.28125 1.554688 43.28125 1.640625 C 44.28125 1.734375 45.117188 2.195312 45.796875 3.03125 Z M 16.515625 10.609375 C 17.648438 12.023438 19 12.976562 20.5625 13.46875 C 22.125 13.957031 23.753906 14.003906 25.453125 13.609375 C 27.160156 13.222656 28.769531 12.421875 30.28125 11.203125 C 31.820312 9.953125 32.957031 8.535156 33.6875 6.953125 C 34.425781 5.378906 34.722656 3.78125 34.578125 2.15625 C 34.429688 0.53125 33.789062 -0.988281 32.65625 -2.40625 C 31.539062 -3.789062 30.203125 -4.726562 28.640625 -5.21875 C 27.078125 -5.707031 25.445312 -5.753906 23.75 -5.359375 C 22.050781 -4.972656 20.429688 -4.15625 18.890625 -2.90625 C 17.378906 -1.6875 16.253906 -0.289062 15.515625 1.28125 C 14.773438 2.863281 14.476562 4.46875 14.625 6.09375 C 14.769531 7.71875 15.398438 9.222656 16.515625 10.609375 Z M 16.515625 10.609375 "/></g></g></g><g fill="#000000" fill-opacity="1"><g transform="translate(507.366164, 200.375699)"><g><path d="M 38.59375 -0.0625 C 39.738281 1.988281 40.519531 3.898438 40.9375 5.671875 C 41.363281 7.441406 41.425781 8.96875 41.125 10.25 C 40.820312 11.53125 40.132812 12.472656 39.0625 13.078125 C 38.332031 13.484375 37.535156 13.644531 36.671875 13.5625 C 35.804688 13.476562 35.140625 13.019531 34.671875 12.1875 C 34.347656 11.613281 34.160156 11.09375 34.109375 10.625 C 34.054688 10.15625 34.078125 9.707031 34.171875 9.28125 C 34.265625 8.851562 34.304688 8.378906 34.296875 7.859375 C 34.304688 7.390625 34.164062 6.742188 33.875 5.921875 C 33.59375 5.109375 33.351562 4.523438 33.15625 4.171875 C 32.132812 2.335938 30.867188 1 29.359375 0.15625 C 27.859375 -0.675781 26.238281 -1.054688 24.5 -0.984375 C 22.769531 -0.910156 21.023438 -0.382812 19.265625 0.59375 C 17.523438 1.5625 16.175781 2.769531 15.21875 4.21875 C 14.257812 5.675781 13.734375 7.25 13.640625 8.9375 C 13.546875 10.625 13.945312 12.28125 14.84375 13.90625 C 15.351562 14.800781 15.84375 15.539062 16.3125 16.125 C 16.78125 16.707031 17.242188 17.160156 17.703125 17.484375 C 18.265625 17.816406 18.820312 18.09375 19.375 18.3125 C 19.925781 18.53125 20.421875 19.035156 20.859375 19.828125 C 21.390625 20.765625 21.492188 21.648438 21.171875 22.484375 C 20.859375 23.328125 20.269531 23.992188 19.40625 24.484375 C 18.507812 24.984375 17.40625 24.929688 16.09375 24.328125 C 14.789062 23.734375 13.453125 22.738281 12.078125 21.34375 C 10.710938 19.957031 9.5 18.304688 8.4375 16.390625 C 6.851562 13.546875 6.132812 10.710938 6.28125 7.890625 C 6.4375 5.066406 7.332031 2.453125 8.96875 0.046875 C 10.601562 -2.347656 12.828125 -4.332031 15.640625 -5.90625 C 18.585938 -7.550781 21.523438 -8.394531 24.453125 -8.4375 C 27.390625 -8.488281 30.09375 -7.800781 32.5625 -6.375 C 35.03125 -4.945312 37.039062 -2.84375 38.59375 -0.0625 Z M 38.59375 -0.0625 "/></g></g></g><g fill="#000000" fill-opacity="1"><g transform="translate(521.673805, 225.154539)"><g><path d="M 2.84375 7.859375 C 2.476562 6.847656 2.515625 5.890625 2.953125 4.984375 C 3.398438 4.078125 4.125 3.4375 5.125 3.0625 L 41.09375 -9.96875 C 42.101562 -10.332031 43.0625 -10.304688 43.96875 -9.890625 C 44.882812 -9.472656 45.523438 -8.757812 45.890625 -7.75 C 46.265625 -6.738281 46.234375 -5.78125 45.796875 -4.875 C 45.359375 -3.976562 44.632812 -3.347656 43.625 -2.984375 L 7.65625 10.046875 C 6.65625 10.421875 5.695312 10.398438 4.78125 9.984375 C 3.863281 9.578125 3.21875 8.867188 2.84375 7.859375 Z M 40.6875 15.046875 C 41.007812 15.941406 40.921875 16.851562 40.421875 17.78125 C 39.929688 18.71875 39.332031 19.3125 38.625 19.5625 C 37.695312 19.90625 36.65625 19.757812 35.5 19.125 L 13.046875 7.453125 L 20.953125 4.25 L 38.640625 12.90625 C 39.648438 13.363281 40.332031 14.078125 40.6875 15.046875 Z M 9.9375 27.21875 C 9.570312 26.207031 9.648438 25.207031 10.171875 24.21875 L 17.671875 9.328125 L 24.484375 12.859375 L 16.875 27.453125 C 16.363281 28.460938 15.625 29.144531 14.65625 29.5 C 13.644531 29.863281 12.675781 29.765625 11.75 29.203125 C 10.820312 28.648438 10.21875 27.988281 9.9375 27.21875 Z M 9.9375 27.21875 "/></g></g></g><g fill="#000000" fill-opacity="1"><g transform="translate(532.348796, 255.707792)"><g/></g></g><g fill="#000000" fill-opacity="1"><g transform="translate(536.661266, 269.207671)"><g><path d="M 44.9375 19.890625 C 45.164062 22.859375 44.8125 25.535156 43.875 27.921875 C 42.9375 30.304688 41.53125 32.363281 39.65625 34.09375 C 37.78125 35.832031 35.566406 37.203125 33.015625 38.203125 C 30.460938 39.203125 27.703125 39.8125 24.734375 40.03125 C 20.742188 40.332031 17.054688 39.882812 13.671875 38.6875 C 10.296875 37.488281 7.535156 35.597656 5.390625 33.015625 C 3.253906 30.429688 2.035156 27.140625 1.734375 23.140625 L 0.625 8.390625 C 0.550781 7.328125 0.847656 6.40625 1.515625 5.625 C 2.179688 4.851562 3.046875 4.425781 4.109375 4.34375 L 39.78125 1.65625 C 40.851562 1.570312 41.773438 1.863281 42.546875 2.53125 C 43.328125 3.207031 43.753906 4.078125 43.828125 5.140625 Z M 8.8125 22 C 9 24.582031 9.820312 26.644531 11.28125 28.1875 C 12.738281 29.726562 14.597656 30.800781 16.859375 31.40625 C 19.117188 32.007812 21.539062 32.210938 24.125 32.015625 C 26.070312 31.867188 27.898438 31.515625 29.609375 30.953125 C 31.328125 30.390625 32.820312 29.601562 34.09375 28.59375 C 35.363281 27.582031 36.332031 26.347656 37 24.890625 C 37.664062 23.429688 37.929688 21.738281 37.796875 19.8125 L 36.984375 9.015625 L 37.578125 9.578125 L 7.34375 11.859375 L 8.015625 11.4375 Z M 8.8125 22 "/></g></g></g><g fill="#000000" fill-opacity="1"><g transform="translate(539.703351, 309.061102)"><g><path d="M -2.9375 19.40625 C -2.519531 15.925781 -1.429688 12.988281 0.328125 10.59375 C 2.085938 8.207031 4.296875 6.472656 6.953125 5.390625 C 9.617188 4.316406 12.53125 3.96875 15.6875 4.34375 C 19.363281 4.78125 22.414062 5.898438 24.84375 7.703125 C 27.269531 9.515625 29.035156 11.710938 30.140625 14.296875 C 31.253906 16.878906 31.65625 19.519531 31.34375 22.21875 C 31.09375 24.300781 30.421875 26.222656 29.328125 27.984375 C 28.242188 29.753906 26.867188 31.265625 25.203125 32.515625 C 23.546875 33.773438 21.6875 34.710938 19.625 35.328125 C 17.5625 35.941406 15.421875 36.117188 13.203125 35.859375 C 12.222656 35.691406 11.46875 35.203125 10.9375 34.390625 C 10.414062 33.578125 10.210938 32.679688 10.328125 31.703125 L 13.109375 8.21875 L 19.46875 7.109375 L 16.796875 29.671875 L 15.734375 28.171875 L 17.390625 28.359375 C 18.585938 28.421875 19.703125 28.125 20.734375 27.46875 C 21.765625 26.820312 22.625 25.96875 23.3125 24.90625 C 24 23.851562 24.421875 22.691406 24.578125 21.421875 C 24.710938 20.203125 24.679688 19.035156 24.484375 17.921875 C 24.285156 16.816406 23.84375 15.828125 23.15625 14.953125 C 22.46875 14.085938 21.492188 13.351562 20.234375 12.75 C 18.984375 12.144531 17.359375 11.722656 15.359375 11.484375 C 13.140625 11.222656 11.207031 11.457031 9.5625 12.1875 C 7.914062 12.925781 6.601562 13.976562 5.625 15.34375 C 4.65625 16.707031 4.070312 18.207031 3.875 19.84375 C 3.695312 21.351562 3.675781 22.570312 3.8125 23.5 C 3.957031 24.4375 4.171875 25.203125 4.453125 25.796875 C 4.734375 26.390625 4.972656 26.925781 5.171875 27.40625 C 5.441406 28.195312 5.539062 28.914062 5.46875 29.5625 C 5.351562 30.46875 4.957031 31.179688 4.28125 31.703125 C 3.601562 32.222656 2.847656 32.4375 2.015625 32.34375 C 0.910156 32.207031 -0.0195312 31.515625 -0.78125 30.265625 C -1.5625 29.085938 -2.175781 27.492188 -2.625 25.484375 C -3.070312 23.484375 -3.175781 21.457031 -2.9375 19.40625 Z M -2.9375 19.40625 "/></g></g></g><g fill="#000000" fill-opacity="1"><g transform="translate(536.092357, 341.600283)"><g><path d="M 30.171875 14.703125 C 29.941406 15.453125 29.546875 16.085938 28.984375 16.609375 C 28.429688 17.128906 27.734375 17.4375 26.890625 17.53125 L 4.375 20.328125 L 4.15625 18.84375 L 21.984375 33.84375 C 23.359375 34.976562 23.800781 36.242188 23.3125 37.640625 C 23.019531 38.628906 22.472656 39.335938 21.671875 39.765625 C 20.878906 40.203125 20.023438 40.285156 19.109375 40.015625 C 18.847656 39.929688 18.566406 39.789062 18.265625 39.59375 C 17.972656 39.40625 17.707031 39.210938 17.46875 39.015625 L -3.671875 20.671875 C -4.910156 19.597656 -5.363281 18.363281 -5.03125 16.96875 C -4.9375 16.1875 -4.585938 15.503906 -3.984375 14.921875 C -3.378906 14.347656 -2.601562 14.007812 -1.65625 13.90625 L 26.03125 10.125 C 26.257812 10.101562 26.546875 10.085938 26.890625 10.078125 C 27.242188 10.078125 27.632812 10.140625 28.0625 10.265625 C 28.769531 10.472656 29.375 11 29.875 11.84375 C 30.382812 12.6875 30.484375 13.640625 30.171875 14.703125 Z M 30.171875 14.703125 "/></g></g></g><g fill="#000000" fill-opacity="1"><g transform="translate(527.65811, 371.439172)"><g><path d="M -9.25 17.3125 C -7.695312 14.164062 -5.691406 11.757812 -3.234375 10.09375 C -0.773438 8.4375 1.882812 7.546875 4.75 7.421875 C 7.625 7.296875 10.484375 7.9375 13.328125 9.34375 C 16.660156 10.988281 19.164062 13.066406 20.84375 15.578125 C 22.53125 18.097656 23.460938 20.753906 23.640625 23.546875 C 23.828125 26.347656 23.316406 28.96875 22.109375 31.40625 C 21.179688 33.289062 19.910156 34.882812 18.296875 36.1875 C 16.679688 37.488281 14.878906 38.453125 12.890625 39.078125 C 10.898438 39.703125 8.828125 39.957031 6.671875 39.84375 C 4.523438 39.738281 2.453125 39.191406 0.453125 38.203125 C -0.410156 37.722656 -0.957031 37.007812 -1.1875 36.0625 C -1.414062 35.125 -1.3125 34.210938 -0.875 33.328125 L 9.59375 12.125 L 15.96875 13.203125 L 5.90625 33.578125 L 5.40625 31.8125 L 6.90625 32.546875 C 8.019531 33.003906 9.171875 33.097656 10.359375 32.828125 C 11.546875 32.566406 12.640625 32.050781 13.640625 31.28125 C 14.648438 30.507812 15.4375 29.546875 16 28.390625 C 16.539062 27.296875 16.898438 26.191406 17.078125 25.078125 C 17.265625 23.972656 17.175781 22.890625 16.8125 21.828125 C 16.457031 20.773438 15.789062 19.753906 14.8125 18.765625 C 13.832031 17.773438 12.4375 16.832031 10.625 15.9375 C 8.625 14.957031 6.722656 14.539062 4.921875 14.6875 C 3.128906 14.832031 1.546875 15.378906 0.171875 16.328125 C -1.191406 17.285156 -2.242188 18.507812 -2.984375 20 C -3.648438 21.351562 -4.070312 22.492188 -4.25 23.421875 C -4.4375 24.359375 -4.492188 25.148438 -4.421875 25.796875 C -4.359375 26.453125 -4.3125 27.039062 -4.28125 27.5625 C -4.289062 28.382812 -4.441406 29.09375 -4.734375 29.6875 C -5.140625 30.5 -5.75 31.035156 -6.5625 31.296875 C -7.382812 31.566406 -8.164062 31.519531 -8.90625 31.15625 C -9.90625 30.65625 -10.550781 29.6875 -10.84375 28.25 C -11.1875 26.882812 -11.234375 25.179688 -10.984375 23.140625 C -10.742188 21.109375 -10.164062 19.164062 -9.25 17.3125 Z M -9.25 17.3125 "/></g></g></g><g fill="#000000" fill-opacity="1"><g transform="translate(512.363949, 401.385224)"><g><path d="M -3.515625 12.140625 C -4.410156 11.546875 -4.960938 10.75 -5.171875 9.75 C -5.378906 8.75 -5.1875 7.800781 -4.59375 6.90625 C -4.019531 6.050781 -3.234375 5.53125 -2.234375 5.34375 C -1.242188 5.15625 -0.300781 5.359375 0.59375 5.953125 L 32.453125 27.109375 C 33.347656 27.703125 33.894531 28.5 34.09375 29.5 C 34.289062 30.5 34.09375 31.445312 33.5 32.34375 C 32.90625 33.238281 32.117188 33.769531 31.140625 33.9375 C 30.171875 34.101562 29.238281 33.890625 28.34375 33.296875 Z M -3.515625 12.140625 "/></g></g></g><g fill="#000000" fill-opacity="1"><g transform="translate(505.492138, 413.389439)"><g><path d="M -11.328125 38.078125 C -13.878906 35.847656 -15.628906 33.320312 -16.578125 30.5 C -17.535156 27.675781 -17.722656 24.832031 -17.140625 21.96875 C -16.566406 19.101562 -15.25 16.492188 -13.1875 14.140625 C -11.113281 11.773438 -8.695312 10.113281 -5.9375 9.15625 C -3.1875 8.195312 -0.34375 7.992188 2.59375 8.546875 C 5.53125 9.109375 8.273438 10.503906 10.828125 12.734375 C 13.359375 14.960938 15.097656 17.492188 16.046875 20.328125 C 17.003906 23.160156 17.195312 26.015625 16.625 28.890625 C 16.0625 31.765625 14.742188 34.382812 12.671875 36.75 C 10.609375 39.101562 8.191406 40.753906 5.421875 41.703125 C 2.660156 42.648438 -0.1875 42.835938 -3.125 42.265625 C -6.0625 41.703125 -8.796875 40.304688 -11.328125 38.078125 Z M -6.453125 32.5 C -4.867188 33.882812 -3.21875 34.769531 -1.5 35.15625 C 0.21875 35.539062 1.867188 35.476562 3.453125 34.96875 C 5.046875 34.457031 6.410156 33.554688 7.546875 32.265625 C 8.691406 30.953125 9.40625 29.472656 9.6875 27.828125 C 9.976562 26.191406 9.820312 24.546875 9.21875 22.890625 C 8.613281 21.234375 7.519531 19.710938 5.9375 18.328125 C 4.375 16.972656 2.726562 16.101562 1 15.71875 C -0.71875 15.332031 -2.367188 15.390625 -3.953125 15.890625 C -5.546875 16.398438 -6.914062 17.3125 -8.0625 18.625 C -9.195312 19.914062 -9.90625 21.382812 -10.1875 23.03125 C -10.476562 24.675781 -10.316406 26.328125 -9.703125 27.984375 C -9.097656 29.640625 -8.015625 31.144531 -6.453125 32.5 Z M -6.453125 32.5 "/></g></g></g><g fill="#000000" fill-opacity="1"><g transform="translate(483.062928, 439.644029)"><g><path d="M 4.25 39.59375 C 1.976562 41.382812 -0.507812 42.410156 -3.21875 42.671875 C -5.925781 42.941406 -8.597656 42.484375 -11.234375 41.296875 C -13.867188 40.117188 -16.234375 38.203125 -18.328125 35.546875 C -20.421875 32.890625 -21.738281 30.132812 -22.28125 27.28125 C -22.820312 24.425781 -22.660156 21.726562 -21.796875 19.1875 C -20.941406 16.644531 -19.414062 14.503906 -17.21875 12.765625 C -15.914062 11.742188 -14.53125 10.992188 -13.0625 10.515625 C -11.601562 10.035156 -10.1875 9.785156 -8.8125 9.765625 C -7.445312 9.742188 -6.265625 9.878906 -5.265625 10.171875 C -4.265625 10.460938 -3.585938 10.835938 -3.234375 11.296875 L -4.25 13.125 L -14.328125 0.328125 C -14.992188 -0.515625 -15.269531 -1.4375 -15.15625 -2.4375 C -15.050781 -3.4375 -14.578125 -4.269531 -13.734375 -4.9375 C -12.890625 -5.59375 -11.972656 -5.863281 -10.984375 -5.75 C -10.003906 -5.644531 -9.171875 -5.15625 -8.484375 -4.28125 L 15 25.53125 C 15.65625 26.363281 15.929688 27.285156 15.828125 28.296875 C 15.722656 29.304688 15.25 30.140625 14.40625 30.796875 C 13.5625 31.460938 12.640625 31.726562 11.640625 31.59375 C 10.640625 31.457031 9.8125 30.972656 9.15625 30.140625 L 7.265625 27.75 L 8.46875 27.515625 C 8.800781 27.941406 8.972656 28.632812 8.984375 29.59375 C 8.992188 30.550781 8.847656 31.632812 8.546875 32.84375 C 8.242188 34.0625 7.734375 35.265625 7.015625 36.453125 C 6.304688 37.648438 5.382812 38.695312 4.25 39.59375 Z M 0.765625 33.671875 C 2.179688 32.554688 3.140625 31.21875 3.640625 29.65625 C 4.148438 28.101562 4.226562 26.484375 3.875 24.796875 C 3.53125 23.109375 2.742188 21.484375 1.515625 19.921875 C 0.304688 18.390625 -1.085938 17.238281 -2.671875 16.46875 C -4.253906 15.695312 -5.859375 15.375 -7.484375 15.5 C -9.117188 15.632812 -10.644531 16.257812 -12.0625 17.375 C -13.5 18.507812 -14.460938 19.847656 -14.953125 21.390625 C -15.441406 22.929688 -15.492188 24.554688 -15.109375 26.265625 C -14.734375 27.984375 -13.941406 29.609375 -12.734375 31.140625 C -11.503906 32.703125 -10.113281 33.851562 -8.5625 34.59375 C -7.007812 35.34375 -5.425781 35.660156 -3.8125 35.546875 C -2.195312 35.429688 -0.671875 34.804688 0.765625 33.671875 Z M 0.765625 33.671875 "/></g></g></g><g fill="#000000" fill-opacity="1"><g transform="translate(455.820647, 461.423709)"><g><path d="M -17.640625 8.640625 C -14.535156 6.992188 -11.5 6.210938 -8.53125 6.296875 C -5.570312 6.390625 -2.890625 7.222656 -0.484375 8.796875 C 1.910156 10.378906 3.851562 12.570312 5.34375 15.375 C 7.070312 18.65625 7.882812 21.804688 7.78125 24.828125 C 7.675781 27.847656 6.875 30.546875 5.375 32.921875 C 3.882812 35.304688 1.941406 37.132812 -0.453125 38.40625 C -2.316406 39.394531 -4.28125 39.945312 -6.34375 40.0625 C -8.414062 40.175781 -10.441406 39.898438 -12.421875 39.234375 C -14.398438 38.578125 -16.226562 37.570312 -17.90625 36.21875 C -19.582031 34.863281 -20.941406 33.203125 -21.984375 31.234375 C -22.410156 30.347656 -22.4375 29.457031 -22.0625 28.5625 C -21.695312 27.664062 -21.078125 26.984375 -20.203125 26.515625 L 0.6875 15.453125 L 5.21875 20.0625 L -14.859375 30.6875 L -14.234375 28.953125 L -13.453125 30.4375 C -12.816406 31.457031 -11.9375 32.207031 -10.8125 32.6875 C -9.695312 33.164062 -8.503906 33.382812 -7.234375 33.34375 C -5.972656 33.3125 -4.773438 32.992188 -3.640625 32.390625 C -2.554688 31.816406 -1.613281 31.132812 -0.8125 30.34375 C -0.0195312 29.550781 0.535156 28.625 0.859375 27.5625 C 1.179688 26.5 1.234375 25.273438 1.015625 23.890625 C 0.804688 22.515625 0.226562 20.9375 -0.71875 19.15625 C -1.757812 17.175781 -3.050781 15.722656 -4.59375 14.796875 C -6.132812 13.867188 -7.738281 13.390625 -9.40625 13.359375 C -11.082031 13.328125 -12.65625 13.695312 -14.125 14.46875 C -15.46875 15.1875 -16.484375 15.867188 -17.171875 16.515625 C -17.859375 17.160156 -18.363281 17.769531 -18.6875 18.34375 C -19.019531 18.914062 -19.328125 19.414062 -19.609375 19.84375 C -20.097656 20.507812 -20.628906 21 -21.203125 21.3125 C -22.003906 21.738281 -22.816406 21.816406 -23.640625 21.546875 C -24.460938 21.273438 -25.066406 20.773438 -25.453125 20.046875 C -25.972656 19.054688 -25.9375 17.894531 -25.34375 16.5625 C -24.8125 15.25 -23.847656 13.835938 -22.453125 12.328125 C -21.066406 10.828125 -19.460938 9.597656 -17.640625 8.640625 Z M -17.640625 8.640625 "/></g></g></g><g fill="#000000" fill-opacity="1"><g transform="translate(426.49846, 476.821962)"><g><path d="M -7.296875 2.546875 C -6.285156 2.191406 -5.328125 2.238281 -4.421875 2.6875 C -3.523438 3.144531 -2.898438 3.882812 -2.546875 4.90625 L 5.859375 29.03125 C 6.210938 30.039062 6.175781 31 5.75 31.90625 C 5.320312 32.820312 4.601562 33.457031 3.59375 33.8125 C 2.570312 34.164062 1.613281 34.113281 0.71875 33.65625 C -0.175781 33.207031 -0.800781 32.476562 -1.15625 31.46875 L -3.078125 25.96875 L -1.296875 29.75 C -1.398438 30.832031 -1.664062 31.851562 -2.09375 32.8125 C -2.53125 33.769531 -3.09375 34.640625 -3.78125 35.421875 C -4.46875 36.210938 -5.253906 36.894531 -6.140625 37.46875 C -7.035156 38.050781 -7.96875 38.507812 -8.9375 38.84375 C -10.101562 39.25 -11.203125 39.257812 -12.234375 38.875 C -13.273438 38.488281 -13.953125 37.847656 -14.265625 36.953125 C -14.710938 35.671875 -14.703125 34.628906 -14.234375 33.828125 C -13.765625 33.023438 -13.144531 32.488281 -12.375 32.21875 C -11.632812 31.96875 -10.910156 31.875 -10.203125 31.9375 C -9.503906 32 -8.765625 31.894531 -7.984375 31.625 C -7.273438 31.375 -6.617188 30.957031 -6.015625 30.375 C -5.410156 29.800781 -4.925781 29.054688 -4.5625 28.140625 C -4.207031 27.234375 -4.023438 26.195312 -4.015625 25.03125 C -4.015625 23.863281 -4.257812 22.578125 -4.75 21.171875 L -9.5625 7.34375 C -9.914062 6.320312 -9.878906 5.351562 -9.453125 4.4375 C -9.035156 3.53125 -8.316406 2.898438 -7.296875 2.546875 Z M -7.296875 2.546875 "/></g></g></g><g fill="#000000" fill-opacity="1"><g transform="translate(403.361583, 484.754841)"><g/></g></g><g fill="#000000" fill-opacity="1"><g transform="translate(388.22182, 488.328215)"><g><path d="M -7.203125 1.15625 C -6.023438 0.976562 -5.070312 1.160156 -4.34375 1.703125 C -3.613281 2.242188 -3.15625 3.101562 -2.96875 4.28125 L -2.8125 5.3125 C -2.632812 6.5 -2.8125 7.457031 -3.34375 8.1875 C -3.882812 8.914062 -4.742188 9.367188 -5.921875 9.546875 L -6.71875 9.671875 C -7.90625 9.859375 -8.863281 9.679688 -9.59375 9.140625 C -10.320312 8.597656 -10.773438 7.734375 -10.953125 6.546875 L -11.109375 5.515625 C -11.296875 4.335938 -11.117188 3.382812 -10.578125 2.65625 C -10.046875 1.925781 -9.1875 1.46875 -8 1.28125 Z M -7.203125 1.15625 "/></g></g></g><g fill="#000000" fill-opacity="1"><g transform="translate(374.754213, 490.49199)"><g/></g></g></svg>